<?xml version="1.0" encoding="UTF-8" standalone="no"?>
<!-- Created with Inkscape (http://www.inkscape.org/) -->

<svg
   width="65.864967mm"
   height="63.806183mm"
   viewBox="0 0 65.864967 63.806183"
   version="1.1"
   id="svg1"
   inkscape:version="1.3.2 (091e20ef0f, 2023-11-25, custom)"
   sodipodi:docname="logo.svg"
   xmlns:inkscape="http://www.inkscape.org/namespaces/inkscape"
   xmlns:sodipodi="http://sodipodi.sourceforge.net/DTD/sodipodi-0.dtd"
   xmlns="http://www.w3.org/2000/svg"
   xmlns:svg="http://www.w3.org/2000/svg">
  <sodipodi:namedview
     id="namedview1"
     pagecolor="#ffffff"
     bordercolor="#666666"
     borderopacity="1.0"
     inkscape:showpageshadow="2"
     inkscape:pageopacity="0.0"
     inkscape:pagecheckerboard="0"
     inkscape:deskcolor="#d1d1d1"
     inkscape:document-units="mm"
     inkscape:zoom="2.3436145"
     inkscape:cx="6.6137156"
     inkscape:cy="151.68877"
     inkscape:window-width="3808"
     inkscape:window-height="2076"
     inkscape:window-x="16"
     inkscape:window-y="16"
     inkscape:window-maximized="1"
     inkscape:current-layer="layer1" />
  <defs
     id="defs1" />
  <g
     inkscape:label="Layer 1"
     inkscape:groupmode="layer"
     id="layer1"
     transform="translate(-63.323874,-109.14672)">
<g
   id="g4"
   transform="matrix(0.26458333,0,0,0.26458333,63.183849,108.01882)">
	<path
   fill="#529423"
   stroke="#2d5016"
   stroke-width="1.5"
   d="M 125,93.451 C 105.001,79.968 98.945,45.605 105.784,17.17 c 4.525,0.422 6.129,1.734 8.266,4.445 -0.785,-6.512 3.283,-8.51 10.95,-16.284 7.667,7.773 11.734,9.772 10.95,16.284 2.137,-2.71 3.741,-4.023 8.267,-4.445 6.838,28.435 0.782,62.798 -19.217,76.281 z m 53.794,148.422 c 3.413,-3.002 3.938,-5.006 4.075,-8.455 3.191,5.73 7.658,4.955 18.43,6.737 1.635,-10.796 3.75,-14.804 -0.713,-19.61 3.322,0.938 5.393,1.057 9.301,-1.262 -11.182,-27.024 -36.279,-51.266 -60.384,-50.418 -8.254,22.662 7.045,54.024 29.291,73.008 z M 40.113,219.283 c 3.909,2.318 5.978,2.199 9.3,1.262 -4.462,4.807 -2.346,8.814 -0.712,19.61 10.772,-1.782 15.238,-1.007 18.43,-6.737 0.136,3.449 0.662,5.453 4.075,8.455 22.247,-18.987 37.545,-50.346 29.291,-73.008 -24.105,-0.847 -49.202,23.394 -60.384,50.418 z M 243.129,116.961 c -1.799,-4.174 -3.543,-5.293 -6.781,-6.488 6.438,-1.265 7.082,-5.753 12.104,-15.446 -9.763,-4.89 -12.921,-8.142 -18.87,-5.383 1.918,-2.87 2.67,-4.8 1.672,-9.235 -29.154,2.283 -59.963,18.661 -66.607,41.848 19.003,14.852 53.556,9.994 78.482,-5.296 z M 18.742,80.41 c -0.997,4.434 -0.244,6.365 1.673,9.235 -5.95,-2.76 -9.108,0.492 -18.87,5.382 5.024,9.694 5.667,14.181 12.103,15.446 -3.238,1.195 -4.982,2.314 -6.781,6.488 24.93,15.29 59.482,20.15 78.486,5.296 C 78.709,99.07 47.899,82.692 18.742,80.41 Z"
   id="path1" />

	<path
   fill="#4b8820"
   d="M 125,88.484 C 109.333,76.18 103.897,46.639 108.877,21.746 c 4.655,0.885 4.504,3.82 7.482,7.189 -0.126,-12.767 2.593,-8.253 8.641,-19.277 5.143,8.271 8.675,4.928 8.771,19.496 2.646,-3.699 3.56,-6.337 7.395,-7.364 4.961,24.873 -0.504,54.396 -16.166,66.694 z m 53.548,147.861 c 2.498,-3.085 1.685,-5.755 1.654,-10.304 8.641,11.727 9.534,6.945 18.555,10.616 -1.588,-12.476 3.265,-10.421 -4.34,-20.677 4.388,0.979 5.992,3.441 10.276,1.42 -10.603,-23.067 -32.363,-43.771 -52.271,-44.517 -5.442,19.156 7.491,46.252 26.126,63.462 z M 45.296,217.339 c 3.707,1.423 5.995,-0.173 10.311,-1.61 -8.485,11.843 -3.661,11.213 -4.363,20.929 11.372,-5.366 10.919,-0.116 18.321,-10.519 0.428,4.478 -1.419,6.762 1.827,10.215 18.661,-17.213 31.627,-44.307 26.185,-63.47 -19.9,0.743 -41.673,21.415 -52.281,44.455 z M 237.797,115.486 c -2.16,-3.33 -4.953,-3.382 -9.287,-4.757 13.824,-4.593 9.553,-6.92 15.83,-14.366 -12.354,-2.345 -8.9,-6.326 -21.004,-2.261 2.283,-3.873 5.121,-4.636 4.525,-9.337 -25.215,2.957 -51.629,17.255 -58.49,35.957 16.537,11.094 46.303,7.169 68.426,-5.236 z M 22.192,84.737 c -0.208,3.964 2.019,5.647 4.719,9.308 -13.884,-4.41 -11.795,-0.016 -21.251,2.318 8.616,9.158 3.483,10.35 15.664,14.175 -4.125,1.79 -6.869,0.74 -9.15,4.894 22.136,12.429 51.911,16.388 68.454,5.29 C 73.772,102.026 47.383,87.706 22.192,84.737 Z"
   id="path2" />

	<path
   fill="#447821"
   d="M 125,83.778 C 113.194,72.79 108.446,47.735 111.623,26.713 c 2.132,2.234 -0.054,6.69 6.828,7.974 -0.111,-5.292 1.883,-13.627 6.549,-17.97 3.26,3.824 7.657,9.304 5.59,17.97 6.412,-0.106 5.699,-5.74 7.831,-7.974 3.171,21.028 -1.594,46.078 -13.421,57.065 z m 52.873,146.968 c 0.412,-3.061 -3.477,-7.201 1.648,-11.055 3.422,8.227 10.199,10.074 15.084,11.252 1.223,-6.256 -2.064,-14.172 -5.266,-18.387 6.323,-3.006 7.176,1.883 10.213,2.438 -9.785,-18.873 -28.354,-36.354 -44.363,-38.303 -3.11,15.84 7.758,38.907 22.684,54.055 z M 50.411,214.967 c 3.038,-0.555 5.773,-5.533 11.022,-1.849 -6.766,5.796 -6.43,12.812 -6.04,17.823 6.328,-0.77 12.84,-6.34 15.861,-10.688 4.813,5.084 0.425,7.404 0.837,10.465 14.926,-15.138 25.813,-38.199 22.72,-54.027 -16.027,1.937 -34.606,19.402 -44.4,38.276 z M 232.266,114.398 c -2.783,-1.338 -7.92,1.081 -10.002,-4.983 8.881,-0.712 12.732,-6.588 15.362,-10.87 -5.571,-3.096 -14.116,-2.416 -19.114,-0.675 -0.906,-6.942 4.008,-6.24 5.475,-8.958 -20.975,3.474 -43.338,15.732 -50.139,30.356 14.103,7.853 39.4,4.644 58.418,-4.87 z M 26.028,88.869 c 1.465,2.718 7.044,3.781 5.164,9.911 -7.604,-4.643 -14.173,-2.154 -18.818,-0.236 2.688,5.781 10,10.252 15.067,11.782 -3.348,6.149 -6.91,2.693 -9.694,4.03 19.011,9.517 44.308,12.746 58.406,4.912 C 69.358,104.624 47.007,92.351 26.028,88.869 Z"
   id="path3" />

	<path
   fill="#2d5016"
   d="m 124.957,88.135 c 0,0 -1.04,-5.556 -1.046,-8.366 -0.042,-19.61 -0.643,-38.957 0,-57.169 0.165,-4.658 1.046,-13.944 1.046,-13.944 0,0 1.113,9.283 1.045,13.944 -0.283,19.601 1.061,39.012 0,57.169 -0.164,2.806 -1.045,8.366 -1.045,8.366 z m 31.779,92.388 c 9.818,15.313 22.311,30.228 33.604,46.252 2.688,3.81 9.043,10.666 9.043,10.666 0,0 -4.746,-8.031 -7.352,-11.896 -10.186,-15.111 -22.043,-30.411 -33.604,-46.251 -1.658,-2.271 -5.765,-6.153 -5.765,-6.153 0,0 2.557,5.016 4.074,7.382 z m -65.092,-1.178 c -11.53,14.067 -21.854,30.562 -33.604,46.251 -2.794,3.731 -7.35,11.896 -7.35,11.896 0,0 6.171,-6.994 9.042,-10.666 11.225,-14.357 22.112,-30.361 33.604,-46.252 1.647,-2.279 4.071,-7.383 4.071,-7.383 0,0 -3.982,3.981 -5.763,6.154 z m 86.325,-60.363 c 17.598,-4.604 35.643,-11.879 54.372,-17.667 4.453,-1.376 12.938,-5.303 12.938,-5.303 0,0 -9.105,2.031 -13.584,3.314 -17.521,5.018 -35.735,11.566 -54.373,17.667 -2.67,0.874 -7.633,3.58 -7.633,3.58 0,0 5.561,-0.88 8.28,-1.591 z M 72.65,117.075 C 55.708,110.456 36.832,105.734 18.278,99.408 13.867,97.905 4.694,96.094 4.694,96.094 c 0,0 8.559,3.708 12.938,5.304 17.123,6.24 35.709,11.647 54.372,17.667 2.675,0.862 8.28,1.591 8.28,1.591 0,0 -5.016,-2.558 -7.634,-3.581 z"
   id="path4" />

</g>

<g
   id="g10"
   transform="matrix(0.26458333,0,0,0.26458333,63.183849,108.01882)">
	<path
   fill="#ea5858"
   stroke="#800000"
   stroke-width="1.5"
   d="m 25.648,111.645 c -16.94,11.923 -7.333,38.273 -1.093,58.009 6.24,19.736 13.539,46.855 34.063,46.271 21.028,-0.603 11.515,-31.653 31.168,-29.996 7.608,18.695 -24.07,18.993 -18.128,39.731 5.799,20.24 33.153,18.994 53.347,18.994 20.194,0 47.548,1.246 53.347,-18.994 5.94,-20.738 -25.734,-21.036 -18.129,-39.731 19.653,-1.657 10.141,29.396 31.168,29.996 20.524,0.587 27.823,-26.534 34.063,-46.271 6.239,-19.735 15.849,-46.086 -1.095,-58.008 -17.354,-12.215 -27.42,18.654 -42.371,5.44 4.539,-19.721 30.337,-0.827 37.392,-21.193 C 226.268,76.015 203.422,60.5 187.085,48.303 170.749,36.106 149.333,18.574 133.064,31.446 116.396,44.634 141.853,64.01 125.003,74.54 108.155,64.01 133.61,44.634 116.944,31.446 100.675,18.573 79.258,36.106 62.922,48.303 46.586,60.501 23.742,76.015 30.628,95.893 37.683,116.26 63.481,97.366 68.02,117.086 53.068,130.298 43.004,99.429 25.648,111.645 Z"
   id="path5" />

	<path
   fill="#e94d4d"
   d="m 124.987,239.396 c 10.195,0 21.802,0.237 30.998,-1.791 9.195,-2.031 15.195,-5.535 17.473,-13.479 1.137,-3.966 0.59,-5.771 -0.777,-7.964 -1.367,-2.193 -4.05,-4.529 -7.152,-7.021 -3.105,-2.492 -6.697,-5.135 -9.219,-9.283 -2.521,-4.149 -3.219,-10.099 -0.824,-15.977 0.74,-1.813 2.404,-3.048 4.311,-3.203 6.18,-0.521 11.473,2.006 14.536,5.748 3.063,3.743 4.427,8.023 5.776,11.828 1.352,3.805 2.656,7.126 4.266,9.143 1.61,2.017 3.132,3.138 7.152,3.252 8.056,0.229 13.129,-4.508 17.838,-12.864 4.711,-8.356 8.084,-19.769 11.234,-29.734 3.15,-9.969 6.967,-21.264 7.934,-30.866 0.969,-9.604 -0.412,-16.525 -7.063,-21.207 -3.32,-2.337 -5.205,-2.353 -7.656,-1.696 -2.453,0.656 -5.402,2.548 -8.668,4.807 -3.266,2.259 -6.846,4.905 -11.463,6.079 -4.619,1.174 -10.344,0.053 -15.041,-4.1 -1.465,-1.286 -2.104,-3.307 -1.65,-5.23 1.427,-6.199 5.449,-10.559 9.859,-12.394 4.408,-1.834 8.77,-1.84 12.699,-1.979 3.934,-0.139 7.411,-0.373 9.77,-1.319 2.354,-0.947 3.877,-2.089 5.228,-5.985 2.702,-7.802 -0.146,-14.256 -6.42,-21.441 -6.274,-7.185 -15.823,-14.009 -24.073,-20.169 -8.253,-6.161 -17.505,-13.376 -26.092,-17.294 -8.588,-3.918 -15.396,-4.722 -21.781,0.33 -3.188,2.522 -3.793,4.371 -3.943,6.974 -0.148,2.603 0.705,6.098 1.787,9.99 1.082,3.894 2.449,8.175 2.109,13.054 -0.34,4.879 -3.186,10.12 -8.482,13.43 -1.633,1.021 -3.686,1.021 -5.317,0 -5.297,-3.311 -8.149,-8.55 -8.483,-13.43 -0.334,-4.88 1.067,-9.161 2.155,-13.054 1.087,-3.893 1.936,-7.388 1.789,-9.99 -0.147,-2.602 -0.757,-4.452 -3.944,-6.974 -6.384,-5.052 -13.194,-4.248 -21.781,-0.33 C 83.485,39.175 74.227,46.39 65.974,52.551 57.722,58.713 48.186,65.534 41.9,72.72 c -6.286,7.188 -9.167,13.643 -6.466,21.441 1.349,3.894 2.866,5.038 5.228,5.985 2.362,0.947 5.829,1.181 9.767,1.319 3.938,0.138 8.334,0.146 12.748,1.979 4.413,1.834 8.432,6.193 9.859,12.394 0.451,1.924 -0.187,3.945 -1.651,5.23 -4.699,4.153 -10.422,5.273 -15.041,4.1 -4.619,-1.173 -8.199,-3.82 -11.464,-6.079 -3.265,-2.259 -6.214,-4.151 -8.667,-4.807 -2.453,-0.656 -4.337,-0.641 -7.658,1.696 -6.649,4.679 -8.03,11.602 -7.062,21.206 0.968,9.604 4.782,20.898 7.933,30.867 3.151,9.967 6.524,21.379 11.234,29.734 4.711,8.357 9.783,13.096 17.838,12.865 4.021,-0.115 5.548,-1.238 7.153,-3.252 1.605,-2.016 2.92,-5.338 4.265,-9.144 1.344,-3.804 2.671,-8.083 5.732,-11.828 3.06,-3.745 8.357,-6.271 14.536,-5.748 1.907,0.155 3.569,1.394 4.31,3.203 2.391,5.876 1.689,11.824 -0.825,15.978 -2.515,4.148 -6.072,6.791 -9.171,9.283 -3.1,2.49 -5.789,4.826 -7.154,7.021 -1.365,2.192 -1.916,3.996 -0.779,7.964 2.276,7.946 8.242,11.447 17.425,13.479 9.181,2.029 20.801,1.79 30.997,1.79 z"
   id="path6" />

	<path
   fill="#ffaaaa"
   d="m 155.295,237.359 c 0.698,-0.002 1.406,0.004 2.152,-0.047 4.963,-0.324 8.998,-2.408 12.877,-5.314 2.648,-1.986 4.582,-5.498 4.582,-5.498 -3.512,0.32 -5.924,7.257 -17.596,7.744 -5.064,0.209 -10.146,-0.352 -15.441,-2.703 -5.297,-2.354 -10.801,-3.346 -16.541,-3.346 -5.741,0 -11.29,0.992 -16.587,3.346 -5.297,2.352 -10.377,2.912 -15.441,2.703 -11.671,-0.487 -14.039,-7.424 -17.549,-7.744 0,0 1.886,3.512 4.536,5.498 3.878,2.906 7.914,4.99 12.875,5.314 5.975,0.395 10.212,-0.752 15.533,-3.115 5.32,-2.362 11.756,-3.896 16.633,-3.896 4.876,0 11.266,1.532 16.586,3.896 4.656,2.069 8.492,3.179 13.381,3.162 z M 56.736,212.8 c -1.382,-3.331 -8.498,-3.543 -12.555,-14.8 -1.759,-4.885 -2.786,-10.041 -2.245,-15.945 0.541,-5.904 -0.288,-11.57 -2.062,-17.183 -1.774,-5.61 -4.388,-10.716 -8.202,-15.167 -3.814,-4.449 -5.869,-9.234 -7.24,-14.25 -3.156,-11.557 2.483,-16.034 1.695,-19.564 0,0 -2.691,2.936 -3.711,6.14 -1.492,4.688 -2.148,9.3 -0.917,14.25 1.483,5.961 3.867,9.734 7.698,14.203 3.831,4.472 7.199,10.264 8.706,15.029 1.507,4.768 2.101,11.526 1.558,17.456 -0.543,5.933 -0.285,10.411 1.925,16.13 1.834,4.75 4.955,8.061 8.843,10.95 2.658,1.978 6.506,2.752 6.507,2.751 z m 136.727,-0.596 c 0,0.001 3.803,-0.772 6.461,-2.749 3.889,-2.893 7.055,-6.202 8.889,-10.951 2.211,-5.718 2.467,-10.244 1.924,-16.174 -0.541,-5.932 0.054,-12.646 1.561,-17.412 1.508,-4.766 4.875,-10.559 8.705,-15.029 3.832,-4.47 6.216,-8.289 7.698,-14.25 1.229,-4.949 0.573,-9.516 -0.916,-14.204 -1.021,-3.204 -3.714,-6.14 -3.714,-6.14 -0.785,3.53 4.854,8.007 1.695,19.564 -1.371,5.016 -3.426,9.801 -7.238,14.25 -3.813,4.451 -6.428,9.557 -8.201,15.166 -1.771,5.61 -2.604,11.279 -2.063,17.184 0.539,5.905 -0.486,11.061 -2.246,15.945 -4.057,11.257 -11.174,11.469 -12.555,14.8 z M 32.955,93.118 c 2.657,-2.38 0.642,-9.418 9.806,-16.862 3.977,-3.229 8.39,-5.852 14.021,-7.148 5.631,-1.296 10.659,-3.818 15.304,-7.286 4.645,-3.468 8.561,-7.589 11.501,-12.692 2.939,-5.103 6.734,-8.658 10.951,-11.547 9.721,-6.656 15.58,-2.538 18.603,-4.398 0,0 -3.547,-1.643 -6.827,-1.65 -4.799,-0.009 -9.225,0.749 -13.425,3.482 -5.058,3.291 -7.861,6.787 -10.813,11.913 -2.952,5.126 -7.235,10.205 -11.18,13.15 -3.945,2.945 -10.014,5.571 -15.67,6.873 -5.656,1.302 -9.733,2.992 -14.342,6.919 -3.828,3.261 -5.948,7.311 -7.423,12.005 -1.009,3.209 -0.506,7.241 -0.506,7.241 z m 183.602,-0.367 c 0,0 0.504,-4.031 -0.504,-7.24 -1.475,-4.694 -3.596,-8.79 -7.424,-12.051 -4.607,-3.927 -8.686,-5.571 -14.342,-6.873 -5.656,-1.302 -11.725,-3.927 -15.67,-6.873 -3.945,-2.946 -8.229,-8.071 -11.18,-13.196 -2.953,-5.126 -5.756,-8.576 -10.814,-11.868 -4.2,-2.733 -8.625,-3.537 -13.425,-3.528 -3.28,0.006 -6.827,1.695 -6.827,1.695 3.023,1.861 8.882,-2.257 18.604,4.398 4.217,2.89 8.012,6.398 10.95,11.501 2.94,5.103 6.856,9.225 11.501,12.692 4.645,3.467 9.674,6.035 15.305,7.331 5.631,1.296 10.043,3.919 14.021,7.148 9.162,7.446 7.146,14.485 9.805,16.864 z"
   id="path7" />

	<path
   fill="#e43636"
   d="m 138.613,78.229 c 6.449,-12.357 -1.467,-36.8 -1.467,-36.8 14.398,0.016 14.994,6.59 18.289,17.059 1.734,5.518 1.737,13.442 10.438,19.275 8.086,6.7 15.421,4.255 21.063,4.247 10.707,-0.015 16.976,-1.466 21.438,12.603 0,0 -25.065,-0.183 -34.511,9.938 -7.775,8.334 -8.088,17.677 -8.088,17.677 0,0 5.938,7.254 16.998,9.299 13.431,2.482 33.604,-12.805 33.604,-12.805 4.438,14.078 -1.465,16.69 -10.136,23.146 -4.569,3.401 -11.902,5.854 -14.612,16.159 -3.701,9.975 0.828,16.388 2.579,21.898 3.321,10.46 6.604,16.139 -5.038,24.85 0,0 -7.574,-24.558 -19.859,-30.658 -10.117,-5.025 -18.859,-2.443 -18.859,-2.443 0,0 -4.879,8.049 -3.354,19.488 1.852,13.893 22.232,28.887 22.232,28.887 -11.658,8.686 -15.896,3.725 -24.553,-2.754 -4.563,-3.416 -9.096,-9.824 -19.469,-9.289 -10.375,-0.535 -14.91,5.873 -19.471,9.289 -8.653,6.479 -12.894,11.439 -24.552,2.754 0,0 20.384,-14.994 22.235,-28.887 1.524,-11.439 -3.567,-19.188 -3.567,-19.188 0,0 -8.956,-2.281 -19.072,2.743 -12.285,6.104 -19.862,30.658 -19.862,30.658 -11.64,-8.711 -8.36,-14.388 -5.038,-24.851 1.751,-5.512 6.281,-11.924 2.579,-21.897 -2.709,-10.306 -10.042,-12.757 -14.612,-16.159 -8.671,-6.453 -14.571,-9.066 -10.137,-23.146 0,0 20.175,15.288 33.604,12.806 11.059,-2.045 16.655,-9.416 16.655,-9.416 0,0 -0.657,-9.458 -8.433,-17.792 C 66.193,94.799 41.126,94.982 41.126,94.982 45.591,80.913 51.858,82.364 62.565,82.38 c 5.643,0.007 12.978,2.453 21.064,-4.247 8.7,-5.833 8.703,-13.758 10.439,-19.275 3.295,-10.469 3.888,-17.043 18.288,-17.059 0,0 -7.915,24.443 -1.466,36.801 5.31,10.176 13.859,13.368 13.859,13.368 0,0 8.556,-3.562 13.864,-13.739 z"
   id="path8" />

	<path
   fill="#d90707"
   d="m 158.645,220.217 c 0.807,-0.017 1.854,-0.216 3.119,-0.754 -1.816,-1.572 -3.764,-3.25 -5.963,-5.514 -5.609,-5.775 -11.879,-13.268 -13.068,-22.195 -1.729,-12.996 3.99,-22.479 3.99,-22.479 0.578,-0.943 1.479,-1.633 2.521,-1.934 0,0 10.475,-2.998 22.01,2.732 7.895,3.922 12.898,12.344 16.51,19.604 1.385,2.789 2.275,5.121 3.164,7.354 1.277,-1.592 1.939,-2.967 2.018,-4.288 0.135,-2.3 -1.17,-5.987 -2.891,-11.404 -1.349,-4.247 -6.711,-12.999 -2.658,-24.505 0.029,-0.083 0.063,-0.15 0.092,-0.234 0.02,-0.064 0.027,-0.123 0.047,-0.188 3.301,-11.749 12.609,-15.563 16.141,-18.188 4.491,-3.346 7.643,-5.554 8.852,-7.492 0.699,-1.121 0.953,-2.642 0.826,-4.713 -1.988,1.266 -4.039,2.641 -6.74,4.053 -7.08,3.699 -15.992,7.486 -24.625,5.891 -12.563,-2.324 -19.534,-10.839 -19.534,-10.839 -0.685,-0.845 -1.042,-1.918 -1.009,-3.016 0,0 0.395,-11.136 9.263,-20.64 6.069,-6.505 15.45,-8.799 23.294,-10.084 3,-0.491 5.415,-0.67 7.75,-0.848 -1.082,-1.745 -2.139,-2.811 -3.348,-3.299 -2.1,-0.848 -5.922,-0.762 -11.463,-0.754 -4.357,0.006 -14.053,2.544 -23.435,-4.948 -0.126,-0.101 -0.239,-0.179 -0.364,-0.283 -9.832,-6.852 -10.533,-17.124 -11.877,-21.394 -1.707,-5.421 -2.746,-9.196 -4.175,-10.98 -0.817,-1.023 -2.146,-1.745 -4.081,-2.262 0.559,2.338 1.133,4.783 1.604,7.87 1.234,8.061 1.988,17.929 -2.154,25.872 -6.029,11.558 -16.049,15.786 -16.049,15.786 -1.006,0.436 -2.135,0.47 -3.164,0.094 0,0 -10.135,-3.905 -16.187,-15.503 -4.144,-7.942 -3.39,-17.811 -2.155,-25.871 0.473,-3.087 1.047,-5.532 1.605,-7.87 -1.934,0.518 -3.263,1.239 -4.081,2.262 -1.427,1.784 -2.467,5.559 -4.173,10.98 -1.344,4.27 -2.045,14.542 -11.876,21.394 -0.045,0.038 -0.092,0.057 -0.138,0.094 -0.085,0.059 -0.142,0.13 -0.229,0.188 -9.38,7.493 -19.076,4.954 -23.432,4.948 -5.541,-0.008 -9.364,-0.094 -11.464,0.754 -1.202,0.485 -2.271,1.527 -3.348,3.251 2.331,0.174 4.763,0.364 7.75,0.848 7.846,1.273 17.222,3.577 23.294,10.085 8.837,9.471 9.629,20.593 9.629,20.593 0.083,1.118 -0.245,2.228 -0.917,3.11 0,0 -6.694,8.742 -19.305,11.074 -8.632,1.597 -17.545,-2.19 -24.624,-5.892 -2.702,-1.412 -4.752,-2.787 -6.741,-4.054 -0.128,2.073 0.127,3.593 0.825,4.712 1.209,1.941 4.359,4.15 8.85,7.493 3.541,2.638 12.799,6.452 16.095,18.188 0.042,0.15 0.097,0.271 0.138,0.426 4.049,11.492 -1.258,20.234 -2.614,24.504 -1.721,5.417 -3.022,9.104 -2.889,11.402 0.077,1.322 0.74,2.696 2.018,4.289 0.887,-2.229 1.778,-4.563 3.164,-7.352 3.61,-7.26 8.615,-15.684 16.508,-19.604 11.487,-5.707 22.057,-3.11 22.057,-3.11 1.047,0.267 1.961,0.921 2.568,1.838 0,0 6.049,9.29 4.311,22.337 -1.19,8.93 -7.459,16.42 -13.069,22.195 -2.155,2.219 -4.077,3.813 -5.87,5.371 1.894,0.777 3.376,0.996 4.631,0.66 2.165,-0.578 5.195,-2.959 9.676,-6.314 3.529,-2.643 9.953,-10.525 21.827,-10.131 0.162,-0.01 0.299,0.006 0.459,0 11.875,-0.396 18.298,7.488 21.827,10.131 2.8,2.098 5.063,3.925 6.878,5.043 1.813,1.119 3.004,1.537 4.399,1.51 z"
   id="path9" />

	<path
   fill="#800000"
   d="m 160.466,227.627 c 4.556,0.076 8.29,-2.139 9.905,-7.352 0.727,-2.352 0.184,-5.278 0.184,-5.278 l -4.402,5.655 c -1.521,1.965 -6.797,2.461 -9.354,1.646 -4.078,-1.295 -7.505,-2.459 -10.82,-5.466 -3.315,-3.007 -6.742,-6.315 -11.144,-8.437 -3.067,-1.479 -6.823,-1.695 -9.538,-1.695 -2.714,0 -6.423,0.219 -9.492,1.695 -4.399,2.119 -7.826,5.43 -11.143,8.437 -3.317,3.007 -6.741,4.171 -10.822,5.466 -2.557,0.813 -7.877,0.316 -9.4,-1.646 l -4.356,-5.655 c 0,0 -0.544,2.929 0.184,5.278 2.152,6.951 8.076,8.592 14.673,6.55 4.691,-1.452 8.24,-4.54 11.602,-7.587 3.362,-3.047 6.491,-6.926 10.409,-8.813 2.42,-1.165 5.97,-1.461 8.346,-1.461 2.375,0 5.974,0.296 8.394,1.461 3.918,1.888 7.047,5.767 10.408,8.813 3.36,3.046 6.909,6.135 11.603,7.587 1.643,0.511 3.244,0.777 4.763,0.802 z M 61.144,206.468 c 2.399,-0.015 4.906,-1.461 4.906,-1.461 l -6.557,-2.545 c -2.29,-0.881 -4.363,-5.874 -4.402,-8.624 -0.062,-4.389 -0.061,-8.129 1.697,-12.299 1.758,-4.17 3.755,-8.523 4.356,-13.479 0.419,-3.455 -0.537,-7.195 -1.376,-9.85 -0.838,-2.65 -2.178,-6.223 -4.494,-8.766 -3.32,-3.646 -7.427,-5.98 -11.234,-8.295 -3.808,-2.313 -5.978,-5.316 -8.438,-8.905 -1.542,-2.248 -2.724,-7.564 -1.376,-9.66 l 3.898,-5.985 c 0,0 -2.865,0.354 -4.815,1.791 -5.768,4.252 -5.441,10.535 -1.513,16.352 2.793,4.137 6.688,6.657 10.547,9.002 3.858,2.344 8.461,4.198 11.418,7.444 1.826,2.006 3.164,5.406 3.897,7.729 0.734,2.32 1.569,5.897 1.238,8.623 -0.536,4.412 -3.125,8.687 -4.907,12.912 -1.782,4.228 -3.545,8.633 -3.439,13.666 0.15,7.082 3.495,12.394 10.594,12.35 z m 127.889,-0.613 c 7.099,0.043 10.443,-5.27 10.594,-12.349 0.105,-5.032 -1.613,-9.438 -3.395,-13.666 -1.782,-4.228 -4.416,-8.499 -4.951,-12.912 -0.332,-2.726 0.504,-6.255 1.236,-8.575 0.732,-2.321 2.116,-5.725 3.943,-7.729 2.957,-3.246 7.516,-5.147 11.371,-7.492 3.857,-2.344 7.8,-4.864 10.596,-9 3.928,-5.817 4.254,-12.101 -1.516,-16.353 -1.95,-1.437 -4.813,-1.791 -4.813,-1.791 l 3.852,6.032 c 1.348,2.096 0.166,7.412 -1.376,9.66 -2.46,3.588 -4.585,6.547 -8.392,8.859 -3.809,2.313 -7.914,4.648 -11.234,8.294 -2.316,2.542 -3.701,6.112 -4.539,8.765 -0.84,2.652 -1.797,6.396 -1.377,9.852 0.602,4.953 2.6,9.307 4.357,13.477 1.756,4.172 1.805,7.911 1.74,12.301 -0.039,2.75 -2.111,7.742 -4.4,8.625 l -6.604,2.545 c 0.002,-0.003 2.51,1.442 4.908,1.457 z M 43.031,99.779 l 0.321,-7.21 c 0.108,-2.51 4.116,-6.087 6.649,-6.975 4.042,-1.417 7.474,-2.549 11.876,-2.121 4.403,0.429 9.077,1.038 13.848,0.095 3.328,-0.658 6.472,-2.744 8.667,-4.383 2.195,-1.639 5.104,-4.066 6.741,-7.116 2.347,-4.372 3.209,-9.089 4.173,-13.524 0.963,-4.436 3.08,-7.467 5.64,-10.98 1.604,-2.201 6.173,-5.005 8.529,-4.335 l 6.741,1.932 c 0,0 -1.186,-2.686 -3.118,-4.147 -5.717,-4.324 -11.467,-2.056 -15.636,3.582 -2.965,4.008 -4.068,8.605 -5.044,13.1 -0.977,4.496 -1.303,9.537 -3.393,13.431 -1.291,2.405 -4.04,4.786 -5.961,6.22 -1.921,1.435 -4.941,3.345 -7.566,3.864 -4.249,0.84 -9.02,-0.366 -13.481,-0.801 -4.462,-0.435 -9.085,-0.811 -13.711,0.848 -6.505,2.333 -10.351,7.261 -8.116,14.185 0.753,2.34 2.841,4.335 2.841,4.335 z m 163.428,-0.377 c 0,0 2.133,-1.995 2.889,-4.335 2.234,-6.924 -1.656,-11.851 -8.162,-14.185 -4.625,-1.659 -9.203,-1.283 -13.664,-0.848 -4.463,0.435 -9.277,1.641 -13.526,0.801 -2.624,-0.519 -5.646,-2.43 -7.563,-3.864 -1.924,-1.435 -4.625,-3.815 -5.916,-6.22 -2.092,-3.894 -2.416,-8.935 -3.395,-13.431 -0.979,-4.495 -2.08,-9.092 -5.045,-13.1 -4.172,-5.637 -9.922,-7.905 -15.639,-3.582 -1.932,1.461 -3.164,4.147 -3.164,4.147 l 6.787,-1.932 c 2.355,-0.67 6.926,2.134 8.529,4.335 2.561,3.513 4.631,6.544 5.594,10.979 0.965,4.436 1.871,9.153 4.219,13.525 1.639,3.049 4.545,5.477 6.74,7.116 2.196,1.639 5.34,3.725 8.668,4.382 4.771,0.943 9.398,0.335 13.803,-0.094 4.402,-0.429 7.881,0.704 11.924,2.121 2.531,0.888 6.541,4.465 6.646,6.975 z"
   id="path10" />

</g>

<g
   id="g16"
   transform="matrix(0.26458333,0,0,0.26458333,63.183849,108.01882)">
	<path
   fill="#ea5858"
   stroke="#800000"
   stroke-width="1.5"
   d="m 72.014,148.684 c -9.035,-6.357 -3.911,-20.412 -0.583,-30.938 3.328,-10.526 7.22,-24.99 18.167,-24.677 11.215,0.321 6.141,16.882 16.623,15.998 4.058,-9.971 -12.837,-10.13 -9.668,-21.19 3.093,-10.795 17.682,-10.13 28.452,-10.13 10.771,0 25.358,-0.666 28.451,10.13 3.169,11.061 -13.726,11.219 -9.668,21.19 10.481,0.884 5.407,-15.677 16.623,-15.998 10.944,-0.313 14.838,14.151 18.166,24.677 3.327,10.525 8.452,24.58 -0.582,30.938 -9.259,6.516 -14.625,-9.949 -22.601,-2.9 2.422,10.518 16.181,0.439 19.942,11.303 3.672,10.604 -8.512,18.877 -17.226,25.382 -8.713,6.507 -20.135,15.856 -28.813,8.991 -8.89,-7.035 4.688,-17.368 -4.298,-22.982 -8.986,5.614 4.593,15.947 -4.298,22.982 -8.677,6.865 -20.099,-2.484 -28.812,-8.991 -8.713,-6.505 -20.896,-14.778 -17.224,-25.382 3.763,-10.859 17.521,-0.785 19.942,-11.303 -7.969,-7.05 -13.336,9.413 -22.593,2.9 z"
   id="path11" />

	<path
   fill="#e94d4d"
   d="m 124.995,80.549 c 5.437,0 11.628,-0.128 16.532,0.955 4.906,1.083 8.104,2.952 9.318,7.188 0.604,2.115 0.313,3.078 -0.416,4.248 -0.729,1.17 -2.16,2.416 -3.816,3.745 -1.654,1.329 -3.569,2.738 -4.914,4.951 -1.346,2.213 -1.717,5.385 -0.44,8.521 0.396,0.966 1.282,1.625 2.3,1.709 3.295,0.278 6.119,-1.07 7.752,-3.066 1.635,-1.997 2.361,-4.28 3.082,-6.309 0.721,-2.029 1.416,-3.801 2.274,-4.875 0.856,-1.075 1.67,-1.673 3.813,-1.734 4.297,-0.123 7.002,2.404 9.515,6.861 2.512,4.457 4.312,10.542 5.991,15.859 1.681,5.316 3.716,11.337 4.229,16.46 0.517,5.121 -0.221,8.813 -3.767,11.311 -1.771,1.247 -2.776,1.256 -4.084,0.904 -1.309,-0.351 -2.883,-1.357 -4.622,-2.563 -1.742,-1.205 -3.649,-2.615 -6.114,-3.24 -2.464,-0.627 -5.516,-0.029 -8.021,2.187 -0.779,0.687 -1.121,1.764 -0.881,2.79 0.76,3.306 2.906,5.631 5.258,6.609 2.354,0.978 4.679,0.98 6.773,1.057 2.098,0.072 3.953,0.197 5.211,0.703 1.256,0.505 2.066,1.113 2.787,3.189 1.441,4.162 -0.078,7.604 -3.424,11.438 -3.348,3.832 -8.439,7.472 -12.84,10.758 -4.4,3.285 -9.336,7.133 -13.916,9.223 -4.58,2.09 -8.211,2.521 -11.616,-0.176 -1.7,-1.346 -2.022,-2.331 -2.103,-3.719 -0.082,-1.389 0.375,-3.252 0.953,-5.328 0.576,-2.077 1.307,-4.359 1.125,-6.963 -0.184,-2.602 -1.699,-5.396 -4.524,-7.162 -0.872,-0.545 -1.965,-0.545 -2.837,0 -2.825,1.766 -4.346,4.561 -4.524,7.162 -0.178,2.604 0.569,4.886 1.149,6.963 0.58,2.076 1.033,3.939 0.954,5.328 -0.079,1.387 -0.404,2.374 -2.104,3.719 -3.405,2.693 -7.037,2.266 -11.617,0.176 -4.58,-2.09 -9.514,-5.938 -13.916,-9.223 -4.401,-3.287 -9.487,-6.926 -12.839,-10.758 -3.353,-3.832 -4.889,-7.275 -3.448,-11.438 0.719,-2.074 1.528,-2.687 2.788,-3.189 1.259,-0.506 3.108,-0.631 5.209,-0.703 2.1,-0.074 4.445,-0.078 6.799,-1.057 2.354,-0.979 4.497,-3.305 5.258,-6.609 0.241,-1.026 -0.099,-2.104 -0.88,-2.79 -2.506,-2.216 -5.558,-2.813 -8.021,-2.187 -2.463,0.625 -4.373,2.035 -6.114,3.24 -1.741,1.205 -3.314,2.215 -4.622,2.563 -1.308,0.352 -2.313,0.343 -4.084,-0.904 -3.546,-2.495 -4.282,-6.188 -3.766,-11.311 0.516,-5.123 2.55,-11.146 4.23,-16.46 1.681,-5.316 3.479,-11.402 5.992,-15.859 2.512,-4.457 5.217,-6.984 9.513,-6.861 2.145,0.062 2.959,0.66 3.815,1.734 0.856,1.074 1.558,2.847 2.275,4.875 0.717,2.029 1.425,4.311 3.057,6.309 1.632,1.998 4.458,3.344 7.753,3.066 1.017,-0.083 1.903,-0.743 2.299,-1.709 1.275,-3.134 0.901,-6.306 -0.44,-8.521 -1.341,-2.213 -3.238,-3.622 -4.891,-4.951 -1.653,-1.329 -3.087,-2.575 -3.815,-3.745 -0.728,-1.17 -1.021,-2.131 -0.416,-4.248 1.214,-4.238 4.396,-6.105 9.293,-7.188 4.897,-1.083 11.097,-0.955 16.535,-0.955 z"
   id="path12" />

	<path
   fill="#ffaaaa"
   d="m 141.159,81.635 c 0.372,10e-4 0.75,-0.001 1.147,0.024 2.646,0.174 4.799,1.285 6.865,2.835 1.414,1.06 2.444,2.932 2.444,2.933 -1.872,-0.171 -3.159,-3.871 -9.386,-4.13 -2.701,-0.112 -5.41,0.187 -8.233,1.441 -2.825,1.255 -5.763,1.784 -8.822,1.784 -3.061,0 -6.021,-0.529 -8.846,-1.784 -2.825,-1.254 -5.535,-1.554 -8.235,-1.441 -6.225,0.259 -7.487,3.958 -9.359,4.13 0,0 1.006,-1.873 2.419,-2.933 2.068,-1.55 4.221,-2.661 6.867,-2.835 3.187,-0.209 5.446,0.401 8.284,1.662 2.838,1.26 6.27,2.077 8.871,2.077 2.602,0 6.01,-0.817 8.848,-2.077 2.483,-1.103 4.528,-1.695 7.136,-1.686 z M 88.594,94.733 c -0.737,1.777 -4.532,1.89 -6.696,7.893 -0.938,2.605 -1.486,5.355 -1.198,8.504 0.289,3.149 -0.153,6.171 -1.1,9.164 -0.946,2.992 -2.34,5.715 -4.374,8.089 -2.034,2.373 -3.13,4.926 -3.861,7.6 -1.683,6.166 1.325,8.554 0.904,10.437 0,0 -1.436,-1.563 -1.979,-3.272 -0.795,-2.5 -1.146,-4.961 -0.489,-7.602 0.791,-3.179 2.062,-5.191 4.105,-7.574 2.043,-2.386 3.839,-5.475 4.643,-8.017 0.804,-2.542 1.121,-6.147 0.831,-9.311 -0.29,-3.164 -0.152,-5.552 1.026,-8.602 0.979,-2.533 2.643,-4.298 4.716,-5.84 1.42,-1.056 3.472,-1.469 3.472,-1.469 z m 72.922,0.318 c 0,0 2.027,0.413 3.445,1.466 2.074,1.542 3.762,3.308 4.74,5.841 1.18,3.049 1.316,5.463 1.027,8.626 -0.291,3.163 0.025,6.744 0.83,9.286 0.805,2.542 2.6,5.632 4.644,8.015 2.044,2.385 3.315,4.422 4.104,7.601 0.656,2.64 0.307,5.075 -0.488,7.575 -0.543,1.709 -1.979,3.275 -1.979,3.275 -0.421,-1.883 2.587,-4.271 0.904,-10.438 -0.731,-2.674 -1.828,-5.227 -3.861,-7.6 -2.034,-2.373 -3.428,-5.096 -4.375,-8.089 -0.944,-2.992 -1.388,-6.015 -1.1,-9.164 0.288,-3.148 -0.259,-5.899 -1.197,-8.504 -2.163,-6.001 -5.958,-6.113 -6.694,-7.89 z m -85.605,63.512 c 1.417,1.271 0.342,5.022 5.229,8.994 2.121,1.724 4.475,3.12 7.478,3.813 3.003,0.69 5.685,2.035 8.162,3.885 2.477,1.851 4.566,4.048 6.134,6.771 1.568,2.723 3.591,4.617 5.84,6.158 5.185,3.551 8.309,1.354 9.922,2.346 0,0 -1.892,0.878 -3.641,0.882 -2.56,0.004 -4.92,-0.4 -7.16,-1.856 -2.698,-1.757 -4.192,-3.621 -5.768,-6.354 -1.575,-2.734 -3.858,-5.443 -5.962,-7.015 -2.104,-1.572 -5.341,-2.973 -8.358,-3.666 -3.017,-0.693 -5.191,-1.597 -7.649,-3.689 -2.042,-1.739 -3.172,-3.898 -3.958,-6.402 -0.537,-1.716 -0.269,-3.866 -0.269,-3.867 z m 97.921,0.197 c 0,0 0.268,2.149 -0.27,3.86 -0.787,2.503 -1.918,4.688 -3.959,6.427 -2.457,2.096 -4.633,2.973 -7.648,3.666 -3.016,0.694 -6.254,2.096 -8.357,3.666 -2.103,1.57 -4.389,4.305 -5.963,7.037 -1.574,2.734 -3.068,4.574 -5.768,6.33 -2.24,1.457 -4.6,1.887 -7.16,1.881 -1.749,-0.002 -3.641,-0.902 -3.641,-0.904 1.61,-0.992 4.736,1.205 9.922,-2.346 2.248,-1.541 4.271,-3.412 5.84,-6.133 1.568,-2.723 3.656,-4.92 6.135,-6.77 2.477,-1.852 5.158,-3.221 8.162,-3.91 3.002,-0.691 5.355,-2.09 7.477,-3.813 4.888,-3.969 3.813,-7.724 5.23,-8.991 z"
   id="path13" />

	<path
   fill="#e43636"
   d="m 132.264,166.504 c 3.438,6.591 -0.783,19.627 -0.783,19.627 7.682,-0.008 7.996,-3.514 9.754,-9.098 0.928,-2.943 0.93,-7.17 5.568,-10.28 4.313,-3.573 8.225,-2.271 11.232,-2.265 5.711,0.008 9.054,0.781 11.436,-6.723 0,0 -13.369,0.099 -18.406,-5.302 -4.146,-4.442 -4.313,-9.428 -4.313,-9.428 0,0 3.168,-3.869 9.064,-4.96 7.162,-1.324 17.922,6.83 17.922,6.83 2.365,-7.51 -0.779,-8.902 -5.404,-12.346 -2.438,-1.813 -6.35,-3.123 -7.793,-8.619 -1.977,-5.32 0.439,-8.74 1.375,-11.68 1.771,-5.579 3.521,-8.605 -2.688,-13.252 0,0 -4.041,13.096 -10.594,16.351 -5.395,2.68 -10.059,1.303 -10.059,1.303 0,0 -2.602,-4.292 -1.788,-10.394 0.987,-7.41 11.858,-15.406 11.858,-15.406 -6.219,-4.632 -8.479,-1.987 -13.094,1.469 -2.436,1.821 -4.854,5.24 -10.387,4.954 -5.533,0.286 -7.952,-3.132 -10.384,-4.954 -4.615,-3.456 -6.876,-6.101 -13.094,-1.469 0,0 10.871,7.997 11.858,15.406 0.813,6.102 -1.902,10.233 -1.902,10.233 0,0 -4.776,1.217 -10.172,-1.463 -6.552,-3.255 -10.593,-16.351 -10.593,-16.351 -6.208,4.646 -4.459,7.673 -2.687,13.252 0.934,2.94 3.35,6.36 1.375,11.68 -1.445,5.496 -5.356,6.804 -7.793,8.618 -4.625,3.442 -7.771,4.836 -5.406,12.345 0,0 10.76,-8.154 17.922,-6.83 5.897,1.092 8.882,5.021 8.882,5.021 0,0 -0.35,5.043 -4.498,9.488 -5.037,5.397 -18.405,5.301 -18.405,5.301 2.381,7.504 5.724,6.729 11.434,6.722 3.009,-0.004 6.921,-1.31 11.234,2.267 4.64,3.11 4.642,7.336 5.568,10.278 1.757,5.584 2.074,9.09 9.753,9.099 0,0 -4.221,-13.035 -0.782,-19.627 2.832,-5.427 7.392,-7.13 7.392,-7.13 0,0 4.566,1.906 7.398,7.333 z"
   id="path14" />

	<path
   fill="#d90707"
   d="m 142.945,90.778 c 0.43,0.009 0.988,0.115 1.662,0.402 -0.967,0.839 -2.006,1.733 -3.178,2.94 -2.992,3.08 -6.338,7.075 -6.973,11.837 -0.924,6.931 2.128,11.988 2.128,11.988 0.31,0.503 0.788,0.871 1.347,1.031 0,0 5.586,1.598 11.737,-1.458 4.21,-2.091 6.879,-6.583 8.806,-10.455 0.738,-1.487 1.215,-2.731 1.688,-3.921 0.682,0.849 1.035,1.582 1.076,2.287 0.072,1.226 -0.623,3.193 -1.541,6.083 -0.719,2.265 -3.579,6.933 -1.418,13.069 0.016,0.044 0.033,0.081 0.049,0.125 0.01,0.035 0.016,0.066 0.025,0.101 1.76,6.267 6.725,8.3 8.605,9.701 2.396,1.783 4.076,2.961 4.723,3.996 0.371,0.6 0.508,1.407 0.438,2.514 -1.063,-0.675 -2.154,-1.408 -3.596,-2.16 -3.774,-1.976 -8.527,-3.993 -13.133,-3.144 -6.701,1.24 -10.42,5.781 -10.42,5.781 -0.363,0.451 -0.555,1.022 -0.537,1.608 0,0 0.211,5.938 4.939,11.008 3.238,3.47 8.24,4.693 12.424,5.379 1.6,0.262 2.889,0.357 4.133,0.451 -0.576,0.932 -1.141,1.5 -1.785,1.761 -1.119,0.45 -3.158,0.405 -6.111,0.401 -2.324,-0.004 -7.494,-1.356 -12.498,2.64 -0.064,0.053 -0.128,0.095 -0.195,0.149 -5.24,3.653 -5.615,9.133 -6.334,11.409 -0.908,2.892 -1.465,4.904 -2.227,5.856 -0.438,0.546 -1.146,0.931 -2.178,1.206 0.299,-1.247 0.604,-2.552 0.856,-4.197 0.659,-4.299 1.062,-9.563 -1.149,-13.798 -3.217,-6.164 -8.56,-8.419 -8.56,-8.419 -0.537,-0.232 -1.139,-0.251 -1.688,-0.052 0,0 -5.405,2.082 -8.633,8.27 -2.21,4.236 -1.808,9.499 -1.149,13.798 0.252,1.646 0.559,2.95 0.856,4.197 -1.031,-0.274 -1.74,-0.66 -2.176,-1.206 -0.761,-0.952 -1.316,-2.966 -2.226,-5.855 -0.717,-2.276 -1.091,-7.756 -6.334,-11.41 -0.024,-0.021 -0.049,-0.029 -0.073,-0.049 -0.045,-0.033 -0.076,-0.069 -0.122,-0.103 -5.003,-3.996 -10.174,-2.644 -12.497,-2.64 -2.956,0.005 -4.995,0.051 -6.114,-0.401 -0.641,-0.259 -1.211,-0.813 -1.785,-1.733 1.243,-0.094 2.54,-0.192 4.133,-0.453 4.185,-0.679 9.185,-1.905 12.424,-5.377 4.713,-5.054 5.136,-10.983 5.136,-10.983 0.044,-0.597 -0.13,-1.188 -0.489,-1.658 0,0 -3.57,-4.662 -10.296,-5.905 -4.604,-0.853 -9.357,1.168 -13.133,3.143 -1.441,0.753 -2.535,1.484 -3.595,2.16 -0.068,-1.104 0.068,-1.916 0.44,-2.515 0.645,-1.034 2.325,-2.213 4.72,-3.995 1.888,-1.406 6.826,-3.439 8.584,-9.702 0.022,-0.08 0.052,-0.145 0.073,-0.226 2.16,-6.13 -0.671,-10.792 -1.394,-13.069 -0.917,-2.889 -1.612,-4.856 -1.541,-6.082 0.041,-0.705 0.395,-1.438 1.076,-2.287 0.473,1.19 0.948,2.434 1.687,3.921 1.925,3.872 4.595,8.364 8.805,10.455 6.126,3.043 11.763,1.659 11.763,1.659 0.559,-0.142 1.046,-0.491 1.37,-0.98 0,0 3.226,-4.955 2.299,-11.913 -0.635,-4.762 -3.978,-8.757 -6.97,-11.837 -1.149,-1.184 -2.174,-2.035 -3.13,-2.865 1.01,-0.415 1.801,-0.531 2.47,-0.352 1.155,0.308 2.771,1.579 5.16,3.368 1.882,1.409 5.308,5.614 11.641,5.403 0.086,0.005 0.159,-0.003 0.245,0 6.333,0.211 9.759,-3.994 11.642,-5.403 1.492,-1.118 2.699,-2.093 3.668,-2.689 0.971,-0.597 1.606,-0.82 2.35,-0.805 z"
   id="path15" />

	<path
   fill="#800000"
   d="m 143.917,86.826 c 2.429,-0.041 4.421,1.14 5.282,3.92 0.389,1.253 0.098,2.815 0.098,2.815 l -2.348,-3.016 c -0.813,-1.048 -3.625,-1.313 -4.988,-0.88 -2.178,0.691 -4.004,1.312 -5.771,2.916 -1.77,1.603 -3.598,3.369 -5.941,4.499 -1.639,0.788 -3.641,0.905 -5.087,0.905 -1.447,0 -3.426,-0.117 -5.063,-0.905 -2.347,-1.13 -4.174,-2.896 -5.943,-4.499 -1.769,-1.604 -3.595,-2.225 -5.771,-2.916 -1.364,-0.433 -4.202,-0.168 -5.014,0.88 l -2.323,3.016 c 0,0 -0.291,-1.562 0.098,-2.815 1.148,-3.708 4.307,-4.583 7.826,-3.493 2.502,0.774 4.395,2.421 6.187,4.046 1.793,1.625 3.462,3.693 5.552,4.7 1.291,0.622 3.184,0.779 4.451,0.779 1.269,0 3.187,-0.157 4.478,-0.779 2.09,-1.006 3.758,-3.075 5.551,-4.7 1.793,-1.625 3.686,-3.272 6.188,-4.046 0.874,-0.272 1.728,-0.413 2.538,-0.427 z M 90.945,98.11 c 1.28,0.008 2.617,0.779 2.617,0.779 l -3.497,1.357 c -1.221,0.47 -2.327,3.133 -2.348,4.599 -0.033,2.341 -0.033,4.335 0.905,6.562 0.937,2.225 2.002,4.545 2.323,7.188 0.224,1.843 -0.287,3.838 -0.733,5.253 -0.448,1.415 -1.162,3.319 -2.397,4.674 -1.771,1.942 -3.961,3.188 -5.992,4.424 -2.03,1.231 -3.188,2.837 -4.5,4.75 -0.822,1.199 -1.453,4.033 -0.733,5.152 l 2.079,3.19 c 0,0 -1.528,-0.188 -2.568,-0.955 -3.076,-2.269 -2.902,-5.619 -0.807,-8.722 1.49,-2.207 3.567,-3.551 5.625,-4.801 2.058,-1.25 4.512,-2.24 6.089,-3.972 0.974,-1.069 1.688,-2.884 2.079,-4.122 0.391,-1.238 0.836,-3.146 0.66,-4.6 -0.286,-2.353 -1.667,-4.632 -2.617,-6.886 -0.95,-2.254 -1.891,-4.604 -1.834,-7.289 0.079,-3.771 1.863,-6.604 5.649,-6.581 z m 68.207,0.328 c 3.787,-0.024 5.57,2.809 5.65,6.584 0.057,2.685 -0.859,5.035 -1.814,7.289 -0.947,2.254 -2.354,4.533 -2.641,6.887 -0.177,1.453 0.271,3.336 0.66,4.574 0.393,1.238 1.129,3.053 2.104,4.121 1.576,1.732 4.009,2.746 6.064,3.996 2.059,1.25 4.16,2.596 5.65,4.801 2.095,3.104 2.27,6.453 -0.809,8.723 -1.039,0.768 -2.566,0.955 -2.566,0.955 l 2.054,-3.219 c 0.72,-1.115 0.089,-3.953 -0.733,-5.15 -1.313,-1.914 -2.443,-3.491 -4.476,-4.727 -2.03,-1.232 -4.222,-2.479 -5.991,-4.424 -1.236,-1.354 -1.975,-3.26 -2.422,-4.674 -0.447,-1.414 -0.957,-3.41 -0.734,-5.253 0.322,-2.642 1.389,-4.963 2.324,-7.188 0.938,-2.224 0.963,-4.219 0.93,-6.56 -0.021,-1.466 -1.127,-4.129 -2.348,-4.599 l -3.521,-1.357 c 0.003,-0.001 1.34,-0.772 2.619,-0.779 z m -77.867,56.574 0.171,3.846 c 0.058,1.338 2.195,3.246 3.546,3.721 2.156,0.756 3.986,1.357 6.334,1.131 2.348,-0.229 4.841,-0.553 7.386,-0.05 1.774,0.351 3.451,1.463 4.622,2.337 1.171,0.875 2.722,2.169 3.595,3.795 1.252,2.332 1.712,4.85 2.226,7.213 0.514,2.366 1.643,3.98 3.008,5.855 0.855,1.176 3.292,2.668 4.549,2.313 l 3.595,-1.028 c 0,0 -0.632,1.432 -1.663,2.211 -3.049,2.307 -6.116,1.097 -8.34,-1.91 -1.581,-2.137 -2.169,-4.59 -2.69,-6.986 -0.521,-2.396 -0.695,-5.086 -1.81,-7.163 -0.688,-1.282 -2.154,-2.552 -3.179,-3.317 -1.025,-0.765 -2.635,-1.787 -4.035,-2.063 -2.266,-0.448 -4.81,0.195 -7.19,0.427 -2.38,0.232 -4.846,0.433 -7.313,-0.452 -3.47,-1.244 -5.521,-3.873 -4.329,-7.563 0.403,-1.254 1.517,-2.317 1.517,-2.317 z m 87.16,0.201 c 0,0 1.139,1.063 1.541,2.313 1.193,3.691 -0.883,6.32 -4.354,7.564 -2.467,0.885 -4.907,0.684 -7.286,0.452 -2.381,-0.231 -4.949,-0.876 -7.217,-0.427 -1.396,0.275 -3.01,1.295 -4.033,2.061 -1.025,0.766 -2.468,2.035 -3.154,3.317 -1.115,2.077 -1.289,4.765 -1.813,7.163 -0.521,2.396 -1.107,4.85 -2.688,6.986 -2.226,3.006 -5.291,4.217 -8.34,1.908 -1.031,-0.777 -1.688,-2.211 -1.688,-2.211 l 3.619,1.03 c 1.258,0.354 3.692,-1.14 4.549,-2.313 1.366,-1.875 2.471,-3.49 2.983,-5.855 0.515,-2.365 0.998,-4.883 2.25,-7.213 0.873,-1.627 2.424,-2.922 3.597,-3.797 1.17,-0.873 2.847,-1.984 4.62,-2.338 2.546,-0.502 5.015,-0.178 7.361,0.053 2.35,0.229 4.203,-0.375 6.358,-1.133 1.353,-0.473 3.487,-2.381 3.546,-3.719 z"
   id="path16" />

</g>

<g
   id="g19"
   transform="matrix(0.26458333,0,0,0.26458333,63.183849,108.01882)">
	<path
   fill="#e6e6e6"
   stroke="#999999"
   stroke-width="1.5"
   d="m 125.031,111.98 c 4.64,-2.425 7.188,-0.729 9.251,1.867 3.114,0.187 6.29,-0.376 7.575,5.101 4.412,1.088 6.259,3.613 5.115,7.588 3.189,2.099 4.271,5.069 1.881,9.325 2.424,5.375 -0.111,7.641 -1.879,9.342 0.566,3.461 -0.398,6.305 -5.115,7.622 -1.184,4.765 -4.289,5.086 -7.573,5.137 -2.165,2.483 -4.978,3.74 -9.255,1.882 -3.938,1.846 -6.958,0.874 -9.256,-1.882 -4.318,0.847 -6.343,-1.669 -7.574,-5.137 -4.543,-1.722 -5.349,-4.481 -5.115,-7.622 -3.158,-2.992 -3.807,-6.146 -1.877,-9.342 -1.932,-3.701 -2.208,-7.041 1.879,-9.325 -0.084,-4.542 1.83,-6.899 5.117,-7.588 1.26,-2.738 1.75,-5.825 7.575,-5.101 2.085,-2.028 3.952,-4.056 9.251,-1.867 z"
   id="path17" />

	<path
   fill="#f2f2f2"
   d="m 128.508,117.544 c 3.916,-1.146 5.604,0.537 6.785,2.836 2.352,0.617 4.864,0.67 5.012,5.052 3.207,1.505 4.232,3.714 2.754,6.577 2.119,2.092 2.492,4.525 0.018,7.412 1.034,4.479 -1.248,5.822 -2.855,6.854 -0.096,2.73 -1.268,4.759 -5.07,5.045 -1.631,3.463 -4.053,3.232 -6.57,2.771 -2.031,1.567 -4.373,2.102 -7.359,0.028 -3.291,0.812 -5.451,-0.394 -6.786,-2.849 -3.429,-0.012 -4.593,-2.242 -5.005,-5.078 -3.209,-2.008 -3.405,-4.24 -2.747,-6.604 -1.958,-2.769 -1.973,-5.276 -0.011,-7.424 -0.912,-3.123 -0.614,-5.717 2.856,-6.839 0.628,-3.483 2.449,-4.993 5.066,-5.019 1.379,-1.9 2.224,-4.184 6.565,-2.744 1.903,-1.232 3.639,-2.498 7.355,-0.018 z"
   id="path18" />

	<path
   fill="#ffffff"
   d="m 127.599,122.278 c 2.9,-0.849 4.151,0.398 5.027,2.102 1.741,0.457 3.602,0.496 3.711,3.742 2.375,1.113 3.135,2.751 2.041,4.872 1.568,1.548 1.844,3.351 0.012,5.489 0.768,3.315 -0.926,4.313 -2.117,5.076 -0.068,2.021 -0.938,3.522 -3.756,3.736 -1.207,2.563 -3.002,2.396 -4.867,2.055 -1.504,1.158 -3.236,1.555 -5.449,0.021 -2.437,0.601 -4.037,-0.291 -5.026,-2.11 -2.54,-0.007 -3.402,-1.66 -3.708,-3.762 -2.377,-1.487 -2.522,-3.141 -2.035,-4.893 -1.45,-2.049 -1.461,-3.908 -0.007,-5.498 -0.676,-2.313 -0.455,-4.234 2.116,-5.066 0.465,-2.581 1.814,-3.699 3.753,-3.719 1.021,-1.408 1.647,-3.1 4.863,-2.033 1.41,-0.913 2.696,-1.85 5.446,-0.013 z"
   id="path19" />

</g>

<ellipse
   style="fill:none;stroke:#ffcc00;stroke-width:2.5;stroke-dasharray:none"
   id="path20"
   cx="96.008476"
   cy="139.50406"
   rx="13.275999"
   ry="13.276978" />
<ellipse
   style="fill:none;stroke:#ffcc00;stroke-width:2.5;stroke-dasharray:none"
   id="path20-5"
   cx="100.19531"
   cy="146.35236"
   rx="13.275999"
   ry="13.276978" />
<ellipse
   style="fill:none;stroke:#ffcc00;stroke-width:2.5;stroke-dasharray:none"
   id="path20-5-2"
   cx="92.701111"
   cy="146.55397"
   rx="13.275999"
   ry="13.276978" />
</g>
</svg>
